# xmcd
#
# Track frame offsets: 
#        150
#        12065
#        29125
#        48070
#        60658
#        73175
#        83253
#        91720
#        102040
#        112268
#        125242
#        140734
#        154791
#        165059
#
# Disc length: 2384 seconds
#
# Revision: 0
# Processed by: cddbd v1.4PL0 Copyright (c) Steve Scherf et al.
# Submitted via: ExactAudioCopy v0.90b3
#
DISCID=ae094e0e
DTITLE=Johnny Cash - Best of Johnny Cash
DYEAR=1900
DGENRE=Americana
TTITLE0=Ring of Fire
TTITLE1=A Boy Named Sue
TTITLE2=Sunday Morning Coming Down
TTITLE3=Folsom Prison Blues
TTITLE4=I Walk the Line
TTITLE5=Ballad of a Teenage Queen
TTITLE6=Guess Things Happen That Way
TTITLE7=The Ways of a Woman In Love
TTITLE8=Get Rhythm
TTITLE9=That Old Wheel
TTITLE10=The Long Black Veil
TTITLE11=The Ballad of Forty Dollars
TTITLE12=I'm Leaving Now
TTITLE13=Highwayman (w/Highwaymen)
EXTD=
EXTT0=
EXTT1=
EXTT2=
EXTT3=
EXTT4=
EXTT5=
EXTT6=
EXTT7=
EXTT8=
EXTT9=
EXTT10=
EXTT11=
EXTT12=
EXTT13=
PLAYORDER=
